<?xml version="1.0" encoding="UTF-8" standalone="no"?>
<!-- Created with Inkscape (http://www.inkscape.org/) -->

<svg
   width="370.10092mm"
   height="400mm"
   viewBox="0 0 370.10092 400"
   version="1.1"
   id="svg1"
   xml:space="preserve"
   inkscape:version="1.3.2 (091e20e, 2023-11-25, custom)"
   sodipodi:docname="Secretaría de  de Jalisco (2024-30).svg"
   xmlns:inkscape="http://www.inkscape.org/namespaces/inkscape"
   xmlns:sodipodi="http://sodipodi.sourceforge.net/DTD/sodipodi-0.dtd"
   xmlns="http://www.w3.org/2000/svg"
   xmlns:svg="http://www.w3.org/2000/svg"><sodipodi:namedview
     id="namedview1"
     pagecolor="#ffffff"
     bordercolor="#000000"
     borderopacity="0.25"
     inkscape:showpageshadow="2"
     inkscape:pageopacity="0.0"
     inkscape:pagecheckerboard="0"
     inkscape:deskcolor="#d1d1d1"
     inkscape:document-units="mm"
     inkscape:zoom="0.18106587"
     inkscape:cx="-55.22852"
     inkscape:cy="-8.284278"
     inkscape:window-width="1920"
     inkscape:window-height="1009"
     inkscape:window-x="-8"
     inkscape:window-y="-8"
     inkscape:window-maximized="1"
     inkscape:current-layer="layer1" /><defs
     id="defs1"><inkscape:path-effect
       effect="powerclip"
       id="path-effect7002"
       is_visible="true"
       lpeversion="1"
       inverse="true"
       flatten="false"
       hide_clip="false"
       message="Utilice la regla de relleno parimpar en el diálogo &lt;b&gt;Relleno y borde&lt;/b&gt; si el resultado no está aplanada después de convertir el recorte en trayectos." /><inkscape:path-effect
       effect="powerclip"
       id="path-effect7001"
       is_visible="true"
       lpeversion="1"
       inverse="true"
       flatten="false"
       hide_clip="false"
       message="Utilice la regla de relleno parimpar en el diálogo &lt;b&gt;Relleno y borde&lt;/b&gt; si el resultado no está aplanada después de convertir el recorte en trayectos." /><clipPath
       clipPathUnits="userSpaceOnUse"
       id="clipPath7001"><path
         style="display:none;fill:#000000;stroke-width:1"
         d="m 776.93697,117.18227 c -0.74512,-0.40492 -1.55614,-1.84319 -1.55614,-2.75964 0,-0.92194 0.67127,-2.21023 1.62208,-3.11311 1.45304,-1.37975 2.50441,-1.67637 5.98125,-1.68748 2.65051,-0.008 3.146,0.0568 3.43548,0.45271 0.55811,0.76328 0.39105,1.43291 -0.65392,2.62084 -0.5457,0.62037 -1.46058,1.6911 -2.03303,2.37941 -1.77771,2.13745 -4.93734,3.11721 -6.79572,2.10727 z"
         id="path7001" /><path
         id="lpe_path-effect7001"
         style="fill:#000000;stroke-width:1"
         class="powerclip"
         d="M 737.31276,76.953202 H 850.71237 V 251.43204 H 737.31276 Z m 39.62421,40.229068 c 1.85838,1.00994 5.01801,0.0302 6.79572,-2.10727 0.57245,-0.68831 1.48733,-1.75904 2.03303,-2.37941 1.04497,-1.18793 1.21203,-1.85756 0.65392,-2.62084 -0.28948,-0.39591 -0.78497,-0.46071 -3.43548,-0.45271 -3.47684,0.0111 -4.52821,0.30773 -5.98125,1.68748 -0.95081,0.90288 -1.62208,2.19117 -1.62208,3.11311 0,0.91645 0.81102,2.35472 1.55614,2.75964 z" /></clipPath><clipPath
       clipPathUnits="userSpaceOnUse"
       id="clipPath7002"><path
         style="display:none;fill:#000000;stroke-width:1"
         d="m 666.75188,116.95064 c -0.80799,-0.37624 -1.75382,-1.12125 -2.38125,-1.87564 -0.57245,-0.68831 -1.48733,-1.75904 -2.03303,-2.37941 -1.05064,-1.19437 -1.2123,-1.85721 -0.64291,-2.6359 0.3036,-0.4152 0.7512,-0.47511 3.42262,-0.45808 3.45154,0.022 4.53263,0.3306 5.9831,1.70791 1.56837,1.48929 1.95411,2.97722 1.18954,4.58847 -0.82989,1.74885 -3.11158,2.18254 -5.53807,1.05265 z"
         id="path7002" /><path
         id="lpe_path-effect7002"
         style="fill:#000000;stroke-width:1"
         class="powerclip"
         d="M 597.3524,76.953202 H 710.87687 V 251.43204 H 597.3524 Z m 69.39948,39.997438 c 2.42649,1.12989 4.70818,0.6962 5.53807,-1.05265 0.76457,-1.61125 0.37883,-3.09918 -1.18954,-4.58847 -1.45047,-1.37731 -2.53156,-1.68591 -5.9831,-1.70791 -2.67142,-0.017 -3.11902,0.0429 -3.42262,0.45808 -0.56939,0.77869 -0.40773,1.44153 0.64291,2.6359 0.5457,0.62037 1.46058,1.6911 2.03303,2.37941 0.62743,0.75439 1.57326,1.4994 2.38125,1.87564 z" /></clipPath></defs><g
     inkscape:label="Capa 1"
     inkscape:groupmode="layer"
     id="layer1"
     transform="translate(-524.02703,96.624068)"><path
       style="fill:#e7064c;fill-opacity:1"
       d="m 746.28115,245.76967 c 30.46687,-6.20505 57.13497,-23.50834 75.75692,-49.154 8.7948,-12.11197 15.92176,-27.29665 19.75574,-42.0915 2.96195,-11.4298 4.11909,-21.32654 3.89051,-33.2747 -0.11138,-5.82185 -0.22385,-7.35144 -0.67947,-9.23996 -4.03622,-16.730128 -16.94088,-28.248818 -33.50806,-29.909278 -6.01717,-0.603077 -15.69867,0.704237 -21.56389,2.91182 l -1.4552,0.54772 -2.09663,5.29447 c -1.53247,3.86984 -2.21306,5.29448 -2.52932,5.29448 -1.07199,0 -5.09157,1.20306 -7.01572,2.09981 -1.91253,0.89133 -4.27207,2.484578 -6.30591,4.257978 -0.41231,0.35952 -1.40413,1.5078 -2.20405,2.55174 -0.79991,1.04393 -1.59366,1.95304 -1.76388,2.02023 -6.75301,2.66562 -20.58718,8.58238 -21.04724,9.00173 -1.47972,1.34878 -1.72373,3.34713 -0.63258,5.18068 0.39731,0.66763 0.85218,1.57105 1.01082,2.00762 0.15865,0.43656 1.70781,3.9943 3.4426,7.90609 l 3.15415,7.11233 2.64805,-0.15328 c 3.0751,-0.17801 3.74382,-0.37123 8.78656,-2.53878 2.0665,-0.88825 4.50707,-1.8071 5.4235,-2.04187 4.36375,-1.11795 8.88363,0.89072 10.80913,4.80366 0.88834,1.80523 0.9213,5.20758 0.0684,7.06203 -0.80578,1.75203 -2.75353,3.73776 -4.39135,4.47698 -1.22887,0.55464 -1.76942,0.62274 -4.95134,0.62377 -3.35927,0.001 -3.66637,-0.043 -5.15938,-0.73988 -2.40167,-1.12108 -4.89479,-3.83783 -4.89479,-5.33385 0,-0.67224 -0.4035,-0.47063 -1.55219,0.77555 -1.51181,1.64013 -2.85755,3.81546 -3.65537,5.9088 -0.54913,1.44082 -0.71595,2.4884 -0.89305,5.60824 -0.11979,2.11005 -0.2249,4.64013 -0.23359,5.62239 l -0.0158,1.78594 h 21.43125 c 19.06882,0 21.43125,0.0447 21.43125,0.40518 0,0.22285 -0.20836,0.47969 -0.46302,0.57076 -3.79502,1.35717 -10.22277,4.78627 -15.27969,8.15146 -5.16848,3.43943 -8.89462,6.4975 -13.36976,10.97263 -15.66963,15.66963 -24.82843,36.38131 -25.83142,58.41507 -0.14885,3.27002 -0.11834,3.77031 0.22995,3.77031 0.22087,0 1.8651,-0.29807 3.65385,-0.66237 z"
       id="path6993"
       clip-path="url(#clipPath7001)"
       transform="matrix(0.92513669,0,0,0.92513669,39.230407,-7.2335973)"
       inkscape:original-d="m 746.28115,245.76967 c 30.46687,-6.20505 57.13497,-23.50834 75.75692,-49.154 8.7948,-12.11197 15.92176,-27.29665 19.75574,-42.0915 2.96195,-11.4298 4.11909,-21.32654 3.89051,-33.2747 -0.11138,-5.82185 -0.22385,-7.35144 -0.67947,-9.23996 -4.03622,-16.730128 -16.94088,-28.248818 -33.50806,-29.909278 -6.01717,-0.603077 -15.69867,0.704237 -21.56389,2.91182 l -1.4552,0.54772 -2.09663,5.29447 c -1.53247,3.86984 -2.21306,5.29448 -2.52932,5.29448 -1.07199,0 -5.09157,1.20306 -7.01572,2.09981 -1.91253,0.89133 -4.27207,2.484578 -6.30591,4.257978 -0.41231,0.35952 -1.40413,1.5078 -2.20405,2.55174 -0.79991,1.04393 -1.59366,1.95304 -1.76388,2.02023 -6.75301,2.66562 -20.58718,8.58238 -21.04724,9.00173 -1.47972,1.34878 -1.72373,3.34713 -0.63258,5.18068 0.39731,0.66763 0.85218,1.57105 1.01082,2.00762 0.15865,0.43656 1.70781,3.9943 3.4426,7.90609 l 3.15415,7.11233 2.64805,-0.15328 c 3.0751,-0.17801 3.74382,-0.37123 8.78656,-2.53878 2.0665,-0.88825 4.50707,-1.8071 5.4235,-2.04187 4.36375,-1.11795 8.88363,0.89072 10.80913,4.80366 0.88834,1.80523 0.9213,5.20758 0.0684,7.06203 -0.80578,1.75203 -2.75353,3.73776 -4.39135,4.47698 -1.22887,0.55464 -1.76942,0.62274 -4.95134,0.62377 -3.35927,0.001 -3.66637,-0.043 -5.15938,-0.73988 -2.40167,-1.12108 -4.89479,-3.83783 -4.89479,-5.33385 0,-0.67224 -0.4035,-0.47063 -1.55219,0.77555 -1.51181,1.64013 -2.85755,3.81546 -3.65537,5.9088 -0.54913,1.44082 -0.71595,2.4884 -0.89305,5.60824 -0.11979,2.11005 -0.2249,4.64013 -0.23359,5.62239 l -0.0158,1.78594 h 21.43125 c 19.06882,0 21.43125,0.0447 21.43125,0.40518 0,0.22285 -0.20836,0.47969 -0.46302,0.57076 -3.79502,1.35717 -10.22277,4.78627 -15.27969,8.15146 -5.16848,3.43943 -8.89462,6.4975 -13.36976,10.97263 -15.66963,15.66963 -24.82843,36.38131 -25.83142,58.41507 -0.14885,3.27002 -0.11834,3.77031 0.22995,3.77031 0.22087,0 1.8651,-0.29807 3.65385,-0.66237 z"
       inkscape:path-effect="#path-effect7001" /><path
       style="fill:#e7064c;fill-opacity:1"
       d="m 705.69893,242.70377 c -1.05348,-22.06851 -10.10646,-42.67842 -25.56538,-58.20187 -5.32514,-5.34736 -9.71586,-8.84439 -16.34287,-13.01641 -2.83009,-1.78168 -9.05506,-4.99202 -11.57339,-5.96863 -0.72761,-0.28217 -1.36142,-0.7059 -1.40847,-0.94163 -0.0783,-0.39226 1.73558,-0.4286 21.39379,-0.4286 h 21.47934 l -0.17973,-4.96094 c -0.10138,-2.79837 -0.34742,-5.64462 -0.56443,-6.52932 -0.55538,-2.26425 -1.82184,-4.67002 -3.51986,-6.68636 -1.54922,-1.83962 -2.14335,-2.26827 -2.14335,-1.54635 0,1.51753 -2.47608,4.22686 -4.8948,5.3559 -1.493,0.69692 -1.80011,0.74096 -5.15937,0.73988 -3.18192,-0.001 -3.72248,-0.0691 -4.95135,-0.62377 -1.63782,-0.73922 -3.58556,-2.72495 -4.39134,-4.47698 -0.85288,-1.85445 -0.81992,-5.2568 0.0684,-7.06203 1.92441,-3.91072 6.44563,-5.92154 10.80381,-4.80503 0.91349,0.23403 3.235,1.09815 5.15891,1.92026 5.28584,2.25872 6.12912,2.50723 9.05648,2.66885 l 2.64804,0.14619 3.15416,-7.11233 c 1.73478,-3.91179 3.28395,-7.46953 3.44259,-7.90609 0.15865,-0.43657 0.61352,-1.33999 1.01083,-2.00762 1.09114,-1.83355 0.84714,-3.8319 -0.63259,-5.18068 -0.46005,-0.41935 -14.29423,-6.33611 -21.04723,-9.00173 -0.17023,-0.0672 -0.96427,-0.9763 -1.76454,-2.02023 -3.16694,-4.13122 -7.66304,-7.051038 -12.85916,-8.350888 -1.22825,-0.30725 -2.42789,-0.55864 -2.66587,-0.55864 -0.31626,0 -0.99684,-1.42464 -2.52931,-5.29448 l -2.09663,-5.29447 -1.45521,-0.54772 c -5.86522,-2.207583 -15.54672,-3.514897 -21.56389,-2.91182 -17.60761,1.76474 -31.54232,15.16198 -33.97697,32.666458 -0.36213,2.60357 -0.37149,13.30308 -0.0156,17.78996 1.55709,19.6297 7.70762,38.77021 17.8453,55.53477 12.32479,20.38137 30.00477,36.74569 51.12974,47.32488 6.72988,3.37027 15.42448,6.66545 22.56473,8.55185 4.01997,1.06204 10.12386,2.40579 11.0871,2.44079 l 0.63606,0.0231 z"
       id="path6989"
       clip-path="url(#clipPath7002)"
       transform="matrix(0.92513669,0,0,0.92513669,39.230407,-7.2335973)"
       inkscape:original-d="m 705.69893,242.70377 c -1.05348,-22.06851 -10.10646,-42.67842 -25.56538,-58.20187 -5.32514,-5.34736 -9.71586,-8.84439 -16.34287,-13.01641 -2.83009,-1.78168 -9.05506,-4.99202 -11.57339,-5.96863 -0.72761,-0.28217 -1.36142,-0.7059 -1.40847,-0.94163 -0.0783,-0.39226 1.73558,-0.4286 21.39379,-0.4286 h 21.47934 l -0.17973,-4.96094 c -0.10138,-2.79837 -0.34742,-5.64462 -0.56443,-6.52932 -0.55538,-2.26425 -1.82184,-4.67002 -3.51986,-6.68636 -1.54922,-1.83962 -2.14335,-2.26827 -2.14335,-1.54635 0,1.51753 -2.47608,4.22686 -4.8948,5.3559 -1.493,0.69692 -1.80011,0.74096 -5.15937,0.73988 -3.18192,-0.001 -3.72248,-0.0691 -4.95135,-0.62377 -1.63782,-0.73922 -3.58556,-2.72495 -4.39134,-4.47698 -0.85288,-1.85445 -0.81992,-5.2568 0.0684,-7.06203 1.92441,-3.91072 6.44563,-5.92154 10.80381,-4.80503 0.91349,0.23403 3.235,1.09815 5.15891,1.92026 5.28584,2.25872 6.12912,2.50723 9.05648,2.66885 l 2.64804,0.14619 3.15416,-7.11233 c 1.73478,-3.91179 3.28395,-7.46953 3.44259,-7.90609 0.15865,-0.43657 0.61352,-1.33999 1.01083,-2.00762 1.09114,-1.83355 0.84714,-3.8319 -0.63259,-5.18068 -0.46005,-0.41935 -14.29423,-6.33611 -21.04723,-9.00173 -0.17023,-0.0672 -0.96427,-0.9763 -1.76454,-2.02023 -3.16694,-4.13122 -7.66304,-7.051038 -12.85916,-8.350888 -1.22825,-0.30725 -2.42789,-0.55864 -2.66587,-0.55864 -0.31626,0 -0.99684,-1.42464 -2.52931,-5.29448 l -2.09663,-5.29447 -1.45521,-0.54772 c -5.86522,-2.207583 -15.54672,-3.514897 -21.56389,-2.91182 -17.60761,1.76474 -31.54232,15.16198 -33.97697,32.666458 -0.36213,2.60357 -0.37149,13.30308 -0.0156,17.78996 1.55709,19.6297 7.70762,38.77021 17.8453,55.53477 12.32479,20.38137 30.00477,36.74569 51.12974,47.32488 6.72988,3.37027 15.42448,6.66545 22.56473,8.55185 4.01997,1.06204 10.12386,2.40579 11.0871,2.44079 l 0.63606,0.0231 z"
       inkscape:path-effect="#path-effect7002" /><path
       style="fill:#e7064c;fill-opacity:1;stroke-width:0.925137"
       d="m 718.05923,221.89735 c 0.16826,-0.104 0.30403,-22.34726 0.41596,-68.14791 0.11246,-46.01656 0.25062,-68.586905 0.42746,-69.829345 0.74362,-5.22433 4.1314,-10.402755 8.85022,-13.528116 0.70043,-0.46391 2.375,-1.571594 3.72127,-2.461522 2.84394,-1.879939 5.61396,-4.313568 7.91728,-6.955781 0.89594,-1.02777 1.96088,-2.218484 2.36653,-2.646031 l 0.73756,-0.77736 4.64752,-0.128573 c 5.1398,-0.142192 8.31316,-0.644035 12.2037,-1.929918 3.16201,-1.045098 7.46305,-3.152771 10.23631,-5.016176 4.39226,-2.951252 9.25,-8.095423 12.04073,-12.750711 2.745,-4.578992 4.81714,-10.633555 5.42678,-15.856464 0.29696,-2.544054 0.57453,-2.772406 4.41416,-3.631439 11.87475,-2.656719 20.99557,-12.178313 23.1341,-24.1506078 0.42068,-2.3551575 0.42168,-7.6720132 0.002,-10.0358052 -1.60463,-9.035348 -7.37256,-17.016193 -15.44606,-21.37206 -2.35552,-1.270863 -6.40716,-2.692297 -8.89264,-3.1198 -2.57153,-0.442304 -2.82079,-0.759673 -3.36181,-4.280562 -1.33867,-8.711831 -5.11116,-16.292342 -11.18771,-22.480814 -5.01172,-5.104038 -10.98073,-8.70163 -17.55778,-10.582278 -3.64962,-1.043576 -5.94264,-1.369033 -10.40297,-1.476525 -2.49059,-0.06002 -4.75875,-0.156474 -5.04037,-0.214336 -0.28161,-0.05786 -1.40915,-1.201359 -2.50564,-2.541104 -5.90158,-7.210841 -14.74319,-12.384043 -24.15245,-14.131529 -3.422,-0.635535 -10.5302,-0.635535 -13.95221,0 -9.02296,1.675745 -18.09366,6.830771 -23.42189,13.311052 -0.84988,1.033634 -1.87759,2.227347 -2.28379,2.652694 l -0.73854,0.773359 -4.8913,0.12718 c -6.97884,0.181459 -11.51751,1.230628 -17.13007,3.959833 -7.58745,3.689518 -14.26842,10.159938 -18.08831,17.51824 -2.31888,4.46686 -3.54141,8.192897 -4.29302,13.084228 -0.54103,3.520889 -0.79028,3.838258 -3.36181,4.280562 -2.46843,0.424569 -6.52593,1.844095 -8.89263,3.111105 -5.24557,2.808203 -10.09358,7.803229 -12.79286,13.180768 -0.93156,1.855892 -2.01917,5.130402 -2.52034,7.588048 -0.547,2.682527 -0.61315,7.9764712 -0.13302,10.6477442 2.17636,12.1086682 11.56011,21.7757818 23.52382,24.2341828 3.2362,0.665002 3.75978,1.114605 4.01832,3.450576 1.00058,9.040398 5.4502,17.914575 12.21335,24.357861 4.32301,4.118554 8.59507,6.796339 14.20357,8.902986 4.20203,1.578361 7.78277,2.21566 13.37832,2.381084 l 4.77183,0.141071 0.73563,0.778549 c 0.40459,0.428202 1.50567,1.652422 2.44686,2.72049 3.10678,3.525607 5.25445,5.27259 11.15366,9.072749 5.23228,3.370523 8.66454,8.670502 9.2977,14.357188 0.16045,1.441083 0.31373,26.556167 0.42607,69.808977 l 0.17546,67.55811 1.71344,0.15677 c 2.12761,0.19464 16.10588,0.10062 16.44772,-0.11064 z"
       id="path6987" /><path
       style="fill:#000000;stroke-width:0.925137"
       d="m 724.98758,302.40106 c 7.37181,-0.66553 13.89409,-1.57625 20.31639,-2.83684 43.64339,-8.56649 82.64072,-32.37985 110.42895,-67.43242 16.81269,-21.20785 28.6511,-45.54193 35.06969,-72.08645 1.09631,-4.5339 2.83311,-13.3449 2.83465,-14.38058 l 8.1e-4,-0.55074 h -19.41492 -19.41491 l -0.43829,1.89701 c -6.61848,28.64587 -21.48905,54.69676 -42.73199,74.8597 -4.31302,4.09374 -7.56387,6.8921 -11.53057,9.92561 -1.64959,1.2615 -3.25727,2.53899 -3.57261,2.83884 -0.31534,0.29985 -0.60599,0.52014 -0.64589,0.48955 -0.0399,-0.0306 -0.94611,0.54994 -2.01383,1.29008 -33.23468,23.03817 -74.07722,31.63544 -113.34346,23.85855 -17.20634,-3.40782 -33.42918,-9.6982 -48.43641,-18.78114 -2.67153,-1.6169 -6.91374,-4.39913 -8.75073,-5.7391 -0.63947,-0.46645 -1.16268,-0.7626 -1.16268,-0.65809 0,0.10452 -0.13769,0.0124 -0.30597,-0.20467 -0.16829,-0.21709 -1.83606,-1.56727 -3.70617,-3.00041 -4.79247,-3.67267 -11.09407,-9.22527 -14.97346,-13.19375 -14.52535,-14.85893 -25.57809,-31.91995 -33.08031,-51.06282 -2.185,-5.5753 -5.23561,-15.5226 -6.3244,-20.62235 l -0.40502,-1.89701 h -19.43509 -19.4351 v 0.52402 c 0,0.8975 1.45405,8.45356 2.48153,12.89543 7.51306,32.47947 23.38455,61.9506 46.54039,86.41901 1.6082,1.69935 3.43517,3.57201 4.05995,4.16146 0.62478,0.58945 2.01715,1.91765 3.09416,2.95154 16.75489,16.08411 38.86499,30.04928 60.94916,38.49667 18.73978,7.16812 37.18986,11.08119 57.88946,12.27773 3.95663,0.22871 21.39156,-0.0718 25.45667,-0.43883 z"
       id="path6985" /><path
       style="fill:#f08013;fill-opacity:1;stroke-width:0.925137"
       d="m 700.51001,303.34153 c -28.05432,-1.49317 -53.23692,-8.15941 -76.9367,-20.36635 -17.11966,-8.81776 -31.97832,-19.52386 -45.41789,-32.72496 -10.08203,-9.90314 -17.75186,-19.12748 -25.05259,-30.13023 -3.78708,-5.7074 -5.11554,-7.90479 -9.01618,-14.91352 -0.85664,-1.53922 -4.70264,-9.24291 -5.56019,-11.1373 -4.84729,-10.70792 -8.84217,-22.32716 -11.5631,-33.6317 -1.4442,-6.00017 -2.93019,-13.60526 -2.93433,-15.01747 l -0.002,-0.79553 h 19.80065 c 17.99421,0 19.81447,0.036 19.95221,0.39497 0.0833,0.21722 0.42188,1.59245 0.75226,3.05603 1.57388,6.97219 4.67566,16.37265 7.98792,24.20866 0.71132,1.68284 2.51933,5.48298 4.01778,8.44476 17.80701,35.19656 48.65308,61.85716 85.92739,74.26799 11.29882,3.76204 21.95283,5.96703 34.61824,7.16468 4.36117,0.41239 19.62779,0.41234 23.98803,-9e-5 16.88325,-1.59697 31.25937,-5.18062 45.94918,-11.45409 32.31134,-13.79898 58.75964,-38.60829 74.60147,-69.97849 3.03998,-6.01979 4.58493,-9.55528 6.84564,-15.66564 2.09776,-5.66997 4.54785,-13.76544 5.25975,-17.37908 0.15913,-0.80776 0.40079,-1.82664 0.53701,-2.26417 l 0.24769,-0.79553 h 19.80785 19.80785 l -0.003,0.79553 c -0.004,1.41221 -1.49012,9.0173 -2.93432,15.01747 -4.94813,20.55777 -13.35688,40.08892 -24.91244,57.8645 -14.64738,22.53166 -34.91126,42.49474 -57.45533,56.60247 -22.39921,14.01708 -47.06409,23.04106 -73.06548,26.73198 -8.40905,1.19368 -14.36062,1.60781 -24.47758,1.70323 -5.04849,0.0476 -9.89505,0.0485 -10.77013,0.002 z"
       id="path6984" /></g></svg>
